<svg xmlns="http://www.w3.org/2000/svg" width="950" height="320" viewBox="0 0 950 320"><defs><linearGradient id="tank"><stop stop-color="#071d2a"/><stop offset=".4" stop-color="#285068"/><stop offset=".7" stop-color="#0c2a3d"/><stop offset="1" stop-color="#03111e"/></linearGradient><linearGradient id="sky" x2="0" y2="1"><stop stop-color="#07334b"/><stop offset="1" stop-color="#00111d"/></linearGradient></defs><path fill="url(#sky)" d="M0 0h950v320H0z"/><g fill="url(#tank)" stroke="#436277" stroke-width="1.5"><path d="M450 300V89q80-60 160 0v211z"/><ellipse cx="530" cy="88" rx="80" ry="20"/><path d="M285 300V132q54-42 108 0v168z"/><ellipse cx="339" cy="132" rx="54" ry="14"/><path d="M675 300V110q70-55 140 0v190z"/><ellipse cx="745" cy="111" rx="70" ry="17"/><path d="M839 300V164q47-36 94 0v136z"/><ellipse cx="886" cy="164" rx="47" ry="11"/></g><g fill="none" stroke="#496477"><path d="M455 150h150M455 225h150M680 174h130M680 242h130M290 203h99M290 253h99M839 234h93M490 70V40h80v30M510 40V21h42v19M715 90V63h60v28M180 300V30h30v270M180 40h30M180 65h30M180 90h30M180 115h30M180 140h30M180 165h30M180 190h30M180 215h30M180 240h30M180 265h30M160 300V150h20M210 160h75M610 220h65M393 243h57M815 262h24M560 65v230M565 65v230M780 90v210M785 90v210"/><path d="M0 301h950M0 310h950M40 301v-44h125v44M65 257v-32h36v32M220 300v-32h65"/></g><g fill="#eab972"><circle cx="560" cy="130" r="2"/><circle cx="782" cy="210" r="2"/><circle cx="335" cy="244" r="2"/><circle cx="205" cy="153" r="2"/></g><text x="530" y="177" text-anchor="middle" fill="#7293ac" font-family="sans-serif" font-size="15">GOOD FOOD</text><text x="530" y="198" text-anchor="middle" fill="#7293ac" font-family="sans-serif" font-size="15">BRIGHTER LIVES</text></svg>